<?xml version="1.0" encoding="UTF-8"?>
<svg xmlns="http://www.w3.org/2000/svg" xmlns:xlink="http://www.w3.org/1999/xlink" viewBox="0 0 24 24" width="24px" height="24px">
<g id="surface11481299">
<path style=" stroke:none;fill-rule:nonzero;fill:rgb(100%,100%,100%);fill-opacity:1;" d="M 12 2 C 6.5 2 2 6.5 2 12 C 2 13.800781 2.5 15.5 3.300781 17 L 2 22 L 7.199219 20.800781 C 8.699219 21.601562 10.300781 22 12 22 C 17.5 22 22 17.5 22 12 C 22 9.300781 21 6.800781 19.097656 4.898438 C 17.199219 3 14.699219 2 12 2 Z M 12 4 C 14.101562 4 16.097656 4.800781 17.699219 6.300781 C 19.199219 7.902344 20 9.898438 20 12 C 20 16.398438 16.398438 20 12 20 C 10.699219 20 9.300781 19.699219 8.199219 19 L 7.5 18.597656 L 6.800781 18.800781 L 4.800781 19.300781 L 5.300781 17.5 L 5.5 16.699219 L 5.097656 16 C 4.398438 14.800781 4 13.398438 4 12 C 4 7.601562 7.601562 4 12 4 Z M 8.5 7.398438 C 8.300781 7.398438 8 7.398438 7.800781 7.699219 C 7.5 8 6.902344 8.601562 6.902344 9.800781 C 6.902344 11 7.800781 12.199219 7.902344 12.402344 C 8.101562 12.601562 9.699219 15.199219 12.199219 16.199219 C 14.300781 17 14.699219 16.800781 15.199219 16.800781 C 15.699219 16.699219 16.699219 16.199219 16.902344 15.597656 C 17.101562 15 17.097656 14.5 17.199219 14.199219 C 17.097656 14.097656 17 14 16.699219 13.898438 C 16.5 13.800781 15.300781 13.199219 15 13.097656 C 14.699219 13 14.601562 12.898438 14.402344 13.199219 C 14.199219 13.5 13.699219 14 13.597656 14.199219 C 13.5 14.398438 13.398438 14.402344 13.097656 14.300781 C 12.898438 14.199219 12.097656 14 11.097656 13.097656 C 10.300781 12.5 9.800781 11.699219 9.699219 11.398438 C 9.5 11.199219 9.699219 11 9.800781 10.898438 L 10.199219 10.5 C 10.300781 10.398438 10.300781 10.199219 10.398438 10.097656 C 10.5 10 10.5 9.898438 10.398438 9.699219 C 10.300781 9.5 9.800781 8.300781 9.597656 7.800781 C 9.398438 7.402344 9.199219 7.398438 9 7.398438 Z M 8.5 7.398438 "/>
</g>
</svg>
